<svg xmlns="http://www.w3.org/2000/svg" viewBox="0 0 30 30"><path d="M15 30A15 15 0 0 1 .168 17.25h7.676a7.5 7.5 0 1 0 0-4.5H6.289a9 9 0 0 1 17.678 1.5h4.512a13.5 13.5 0 0 0-26.787-1.5H.168A15 15 0 1 1 15 30zm12.75-14.25h-3.783a9 9 0 0 1-17.144 3H5.2a10.5 10.5 0 0 0 20.06-1.5h1.528A12 12 0 0 1 3.6 18.75H2.036a13.5 13.5 0 0 0 26.442-3h-.728zm-25.5-1.5h.776a12 12 0 0 1 23.758-1.5h-1.529a10.5 10.5 0 0 0-20.725 1.5h3.007L7.5 15l.037.75H.019Q0 15.377 0 15q0-.377.019-.75H2.25z" fill-rule="evenodd"/></svg>