<svg xmlns="http://www.w3.org/2000/svg" xmlns:xlink="http://www.w3.org/1999/xlink" width="544" height="84" viewBox="0 0 544 84"><defs><style>.a{clip-path:url(#b);}.b,.c{fill:#3d99ef;}.b{fill-rule:evenodd;}</style><clipPath id="b"><rect width="544" height="84"/></clipPath></defs><g id="a" class="a"><g transform="translate(-972 -856.529)"><path class="b" d="M40.49,79.526A39.228,39.228,0,0,1,20.741,6.259,39.674,39.674,0,0,1,68.419,12.5l-7.982,6.941c-9.658-9.63-23.691-10.446-35.382-3.386S9.051,36.215,13.2,49.174s15.674,20.42,29.32,19.47S67.382,58.577,69.67,45.17H40.49V35.354H79.647A38.879,38.879,0,0,1,70.182,66.3,39.369,39.369,0,0,1,40.49,79.526Z" transform="translate(971.011 861.003)"/><path class="c" d="M339.66-82.471v40.2q6.592-6.8,14.941-6.8a20.608,20.608,0,0,1,16.016,7.138q6.4,7.089,6.4,17.674,0,10.925-6.445,18.063A20.83,20.83,0,0,1,354.406.9,20.606,20.606,0,0,1,339.66-5.413V-.46H328.674V-82.471Zm26.123,58.7q0-6.8-3.711-11.071a11.917,11.917,0,0,0-9.424-4.37,12.667,12.667,0,0,0-9.863,4.224q-3.76,4.176-3.76,10.876,0,6.895,3.711,11.022A12.37,12.37,0,0,0,352.5-8.86a12.14,12.14,0,0,0,9.473-4.224A15.462,15.462,0,0,0,365.783-23.767Zm18.605-.68a23.436,23.436,0,0,1,7.373-17.432,24.779,24.779,0,0,1,17.969-7.186A24.915,24.915,0,0,1,427.8-41.83a24.009,24.009,0,0,1,7.324,17.771,23.885,23.885,0,0,1-7.373,17.82A25.276,25.276,0,0,1,409.535.9a24.236,24.236,0,0,1-17.92-7.283A24.423,24.423,0,0,1,384.389-24.447Zm11.23.194q0,7.089,3.809,11.216a13.447,13.447,0,0,0,10.3,4.176,13.43,13.43,0,0,0,10.3-4.127q3.857-4.127,3.857-11.022t-3.857-11.022a13.447,13.447,0,0,0-10.3-4.176,13.329,13.329,0,0,0-10.205,4.176A15.146,15.146,0,0,0,395.619-24.252Zm46.877-.194a23.436,23.436,0,0,1,7.373-17.432,24.779,24.779,0,0,1,17.969-7.186A24.915,24.915,0,0,1,485.9-41.83a24.009,24.009,0,0,1,7.324,17.771,23.885,23.885,0,0,1-7.373,17.82A25.276,25.276,0,0,1,467.643.9a24.236,24.236,0,0,1-17.92-7.283A24.423,24.423,0,0,1,442.5-24.447Zm11.23.194q0,7.089,3.809,11.216a13.447,13.447,0,0,0,10.3,4.176,13.43,13.43,0,0,0,10.3-4.127Q482-17.115,482-24.01t-3.857-11.022a13.447,13.447,0,0,0-10.3-4.176,13.329,13.329,0,0,0-10.205,4.176A15.146,15.146,0,0,0,453.727-24.252Zm60.109-58.218v50.012l15.479-15.3h14.746L523.406-27.894,545.574-.46H531.316L515.594-20.416l-1.758,1.748V-.46H502.85V-82.471Z" transform="translate(970.426 939)"/><path class="c" d="M100.148-47.753v27.143q0,11.75,9.326,11.75t9.326-11.75V-47.753h10.986v27.385a30.313,30.313,0,0,1-1.416,9.808,16.476,16.476,0,0,1-4.736,6.652Q118.068.9,109.475.9,100.93.9,95.363-3.907a16.747,16.747,0,0,1-4.834-6.652q-1.367-3.3-1.367-9.808V-47.753Zm52.492-34.717V-.46H141.654V-82.471Zm46.975,0H210.65V-.46H199.615V-5.413A20.553,20.553,0,0,1,184.918.9,20.979,20.979,0,0,1,168.707-6.19q-6.4-7.235-6.4-18.063,0-10.585,6.4-17.674a20.461,20.461,0,0,1,15.967-7.138q8.35,0,14.941,6.8ZM173.541-24.252q0,6.8,3.662,11.071a12.022,12.022,0,0,0,9.473,4.321,12.641,12.641,0,0,0,9.863-4.176A16.114,16.114,0,0,0,200.3-24.01a16.114,16.114,0,0,0-3.76-10.974,12.463,12.463,0,0,0-9.766-4.224,12.174,12.174,0,0,0-9.473,4.273A15.7,15.7,0,0,0,173.541-24.252Zm92.287,2.719H231.746a14.32,14.32,0,0,0,3.809,9.274,11.646,11.646,0,0,0,8.643,3.4,11.287,11.287,0,0,0,6.787-1.942q2.637-1.942,6.006-7.186l9.277,5.147A36.708,36.708,0,0,1,261.727-6.6,24.114,24.114,0,0,1,256.6-2.329,20.623,20.623,0,0,1,250.691.123,28.915,28.915,0,0,1,243.807.9q-10.645,0-17.09-6.8-6.445-6.846-6.445-18.16,0-11.216,6.25-18.16,6.3-6.846,16.7-6.846,10.5,0,16.6,6.652,6.055,6.6,6.055,18.306Zm-11.279-8.934q-2.295-8.74-11.084-8.74a11.441,11.441,0,0,0-3.76.607,10.775,10.775,0,0,0-3.2,1.748,11.1,11.1,0,0,0-2.466,2.743,12.712,12.712,0,0,0-1.562,3.642ZM275.84-47.753h11.035v4.37a18.056,18.056,0,0,1,12.988-5.681q8.3,0,12.939,5.2,4,4.419,4,14.421V-.46H305.771V-26.874q0-6.992-1.953-9.663-1.9-2.719-6.934-2.719-5.469,0-7.764,3.593-2.246,3.545-2.246,12.382V-.46H275.84Z" transform="translate(971.323 939)"/></g></g></svg>