<svg id="Laag_1" data-name="Laag 1" xmlns="http://www.w3.org/2000/svg" viewBox="0 0 596.83 130.72"><defs><style>.cls-1,.cls-2{fill:#fff;}.cls-2{fill-rule:evenodd;}</style></defs><path class="cls-1" d="M143,97.15q-5.26,6.19-15.48,6.2-8.44,0-12.86-4.91t-4.47-14.52V49.54h9V83.67q0,12,9.77,12,10.35,0,13.77-7.71V49.54h9v52.83h-8.59Z"/><path class="cls-1" d="M175.3,102.37h-9v-75h9Z"/><path class="cls-1" d="M187.55,75.52q0-12.16,5.76-19.56a18.24,18.24,0,0,1,15.09-7.4q9.28,0,14.7,6.35V27.37h9v75h-8.3l-.44-5.66q-5.41,6.65-15.08,6.64a18.05,18.05,0,0,1-15-7.52q-5.79-7.51-5.79-19.63Zm9,1q0,9,3.71,14.07a12,12,0,0,0,10.25,5.07A13.18,13.18,0,0,0,223.1,88V63.7a13.27,13.27,0,0,0-12.45-7.47,12,12,0,0,0-10.35,5.13Q196.58,66.49,196.59,76.54Z"/><path class="cls-1" d="M268.07,103.35q-10.74,0-17.48-7.06t-6.74-18.87V75.76a31.75,31.75,0,0,1,3-14,23.52,23.52,0,0,1,8.4-9.66,21.13,21.13,0,0,1,11.7-3.5q10.31,0,16,6.79t5.72,19.44v3.76H252.89c.12,5.2,1.65,9.41,4.56,12.62A14.37,14.37,0,0,0,268.56,96a15.63,15.63,0,0,0,8.1-2,20.2,20.2,0,0,0,5.81-5.17L288,93.14Q281.36,103.36,268.07,103.35ZM267,56a12,12,0,0,0-9.18,4q-3.72,4-4.59,11.15h26.46v-.68q-.39-6.89-3.71-10.67A11.34,11.34,0,0,0,267,56Z"/><path class="cls-1" d="M307.67,49.54l.29,6.64a19.25,19.25,0,0,1,15.82-7.62q16.75,0,16.9,18.9v34.91h-9v-35q0-5.71-2.61-8.44t-8-2.74a13.08,13.08,0,0,0-7.72,2.34,15.94,15.94,0,0,0-5.17,6.16v37.64h-9V49.54Z"/><path class="cls-1" d="M355.72,102.37V31.28H379q11.57,0,17.41,4.78t5.83,14.16A14.43,14.43,0,0,1,399.37,59,18.4,18.4,0,0,1,391.65,65a16.54,16.54,0,0,1,9.11,6.13,17.58,17.58,0,0,1,3.34,10.77q0,9.57-6.2,15t-17.53,5.47Zm9.37-40.77h14.16q6.15,0,9.84-3.08a10.33,10.33,0,0,0,3.69-8.37q0-5.86-3.42-8.54T379,39H365.09Zm0,7.52V94.71h15.48q6.54,0,10.33-3.4T394.68,82q0-12.84-14-12.84Z"/><path class="cls-1" d="M414.16,75.47a31.16,31.16,0,0,1,3.06-14,22.77,22.77,0,0,1,8.49-9.57,23.18,23.18,0,0,1,12.43-3.37q10.78,0,17.45,7.48t6.67,19.87v.63a31.63,31.63,0,0,1-2.95,13.85,22.48,22.48,0,0,1-8.45,9.54,23.38,23.38,0,0,1-12.62,3.42q-10.75,0-17.41-7.47T414.16,76.1Zm9.09,1.07q0,8.79,4.07,14.11a13.81,13.81,0,0,0,21.85-.07q4.05-5.4,4.06-15.11,0-8.68-4.13-14.09a13.13,13.13,0,0,0-11-5.39,13,13,0,0,0-10.79,5.32Q423.24,66.63,423.25,76.54Z"/><path class="cls-1" d="M471.19,75.47a31.16,31.16,0,0,1,3.06-14,22.77,22.77,0,0,1,8.49-9.57,23.18,23.18,0,0,1,12.43-3.37q10.79,0,17.46,7.48t6.66,19.87v.63a31.49,31.49,0,0,1-2.95,13.85,22.48,22.48,0,0,1-8.45,9.54,23.38,23.38,0,0,1-12.62,3.42q-10.75,0-17.41-7.47T471.19,76.1Zm9.09,1.07q0,8.79,4.07,14.11a13.81,13.81,0,0,0,21.85-.07q4.07-5.4,4.06-15.11,0-8.68-4.13-14.09a13.12,13.12,0,0,0-11-5.39,13,13,0,0,0-10.79,5.32Q480.27,66.63,480.28,76.54Z"/><path class="cls-1" d="M545.36,77.91l-5.66,5.91v18.55h-9v-75h9V72.73l4.83-5.81L561,49.54h11L551.42,71.61l23,30.76h-10.6Z"/><path id="G" class="cls-2" d="M60.45,103.35A38,38,0,1,1,87.32,38.5L80.6,45.22a28.5,28.5,0,1,0,7.92,24.89H60.45v-9.5H98.11a37.27,37.27,0,0,1,.33,4.75A38,38,0,0,1,60.45,103.35Z"/></svg>