<?xml version="1.0" encoding="UTF-8" standalone="no"?>
<svg
   width="436.038"
   height="69.216"
   viewBox="0 0 115.368 18.313"
   version="1.1"
   id="svg19"
   sodipodi:docname="black.svg"
   inkscape:version="1.2.1 (9c6d41e, 2022-07-14)"
   xmlns:inkscape="http://www.inkscape.org/namespaces/inkscape"
   xmlns:sodipodi="http://sodipodi.sourceforge.net/DTD/sodipodi-0.dtd"
   xmlns="http://www.w3.org/2000/svg"
   xmlns:svg="http://www.w3.org/2000/svg">
  <sodipodi:namedview
     id="namedview21"
     pagecolor="#ffffff"
     bordercolor="#000000"
     borderopacity="0.25"
     inkscape:showpageshadow="2"
     inkscape:pageopacity="0.0"
     inkscape:pagecheckerboard="0"
     inkscape:deskcolor="#d1d1d1"
     showgrid="false"
     inkscape:zoom="2.7726942"
     inkscape:cx="278.06889"
     inkscape:cy="15.147722"
     inkscape:window-width="1309"
     inkscape:window-height="456"
     inkscape:window-x="0"
     inkscape:window-y="38"
     inkscape:window-maximized="0"
     inkscape:current-layer="svg19" />
  <defs
     id="defs5">
    <path
       id="c"
       d="M304.412 466.131h85.616v109.398h-85.616z" />
    <path
       id="b"
       d="M104.642 356.733h209.283v142.693H104.642z" />
    <path
       id="a"
       d="M76.103 356.733h128.424v99.885H76.103z" />
  </defs>
  <g
     aria-label="MuntBook"
     transform="matrix(.26458 0 0 .26458 -53.55 -61.2)"
     id="text11"
     style="font-size:85.3333px;-inkscape-font-specification:'sans-serif, Normal';white-space:pre;shape-inside:url(#b);display:inline;fill:#4d4d4d">
    <path
       d="m 168.22588,577.27794 h -8.24999 v -53.45832 l -17.24999,36.37499 h -4.91667 l -17.12499,-36.37499 v 53.45832 h -7.70833 V 515.2363 h 11.24999 l 16.54166,34.54165 16,-34.54165 h 11.45832 z"
       id="path300" />
    <path
       d="m 222.85086,577.27794 h -7.83333 v -5.16667 q -3.95833,3.125 -7.58333,4.79167 -3.625,1.66666 -8,1.66666 -7.33333,0 -11.41666,-4.45833 -4.08333,-4.5 -4.08333,-13.16666 v -30.20832 h 7.83333 v 26.49999 q 0,3.54166 0.33333,6.08333 0.33334,2.5 1.41667,4.29166 1.125,1.83334 2.91666,2.66667 1.79167,0.83333 5.20833,0.83333 3.04167,0 6.625,-1.58333 3.625,-1.58333 6.75,-4.04167 v -34.74998 h 7.83333 z"
       id="path302" />
    <path
       d="m 277.18417,577.27794 h -7.83333 v -26.49999 q 0,-3.20834 -0.375,-6 -0.375,-2.83333 -1.375,-4.41667 -1.04167,-1.74999 -3,-2.58333 -1.95833,-0.875 -5.08333,-0.875 -3.20833,0 -6.70833,1.58334 -3.5,1.58333 -6.70833,4.04166 v 34.74999 h -7.83333 v -46.54165 h 7.83333 v 5.16666 q 3.66666,-3.04166 7.58333,-4.74999 3.91666,-1.70834 8.04166,-1.70834 7.54167,0 11.5,4.54167 3.95833,4.54166 3.95833,13.08333 z"
       id="path304" />
    <path
       d="m 316.43416,576.86127 q -2.20833,0.58333 -4.83333,0.95833 -2.58333,0.375 -4.625,0.375 -7.125,0 -10.83333,-3.83333 -3.70833,-3.83333 -3.70833,-12.29166 v -24.74999 h -5.29166 v -6.58333 h 5.29166 v -13.375 h 7.83333 v 13.375 h 16.16666 v 6.58333 H 300.2675 v 21.20832 q 0,3.66667 0.16667,5.75 0.16666,2.04167 1.16666,3.83333 0.91667,1.66667 2.5,2.45834 1.625,0.74999 4.91667,0.74999 1.91666,0 4,-0.54166 2.08333,-0.58333 2.99999,-0.95833 h 0.41667 z"
       id="path306" />
    <path
       d="m 373.30912,558.19461 q 0,4.625 -1.75,8.16666 -1.75,3.54167 -4.70833,5.83333 -3.5,2.75 -7.70833,3.91667 -4.16667,1.16667 -10.625,1.16667 H 326.51747 V 515.2363 h 18.375 q 6.79166,0 10.16666,0.49999 3.375,0.5 6.45833,2.08334 3.41666,1.79166 4.95833,4.625 1.54167,2.79166 1.54167,6.70833 0,4.41666 -2.25,7.54166 -2.25,3.08333 -6,4.95833 v 0.33333 q 6.29166,1.29167 9.91666,5.54167 3.625,4.20833 3.625,10.66666 z m -13.87499,-27.95832 q 0,-2.25 -0.75,-3.79167 -0.75,-1.54166 -2.41667,-2.5 -1.95833,-1.12499 -4.75,-1.37499 -2.79166,-0.29167 -6.91666,-0.29167 h -9.83333 v 17.91666 h 10.66666 q 3.875,0 6.16667,-0.375 2.29166,-0.41667 4.24999,-1.66667 1.95834,-1.25 2.75,-3.20833 0.83334,-2 0.83334,-4.70833 z m 5.29166,28.29165 q 0,-3.74999 -1.125,-5.95833 -1.125,-2.20833 -4.08333,-3.75 -2,-1.04166 -4.875,-1.33333 -2.83333,-0.33333 -6.91666,-0.33333 h -12.95833 v 23.08332 h 10.91666 q 5.41667,0 8.875,-0.54166 3.45833,-0.58334 5.66666,-2.08334 2.33333,-1.625 3.41667,-3.70833 1.08333,-2.08333 1.08333,-5.375 z"
       id="path308" />
    <path
       d="m 424.05912,554.02795 q 0,11.37499 -5.83333,17.95832 -5.83333,6.58333 -15.62499,6.58333 -9.875,0 -15.70833,-6.58333 -5.79166,-6.58333 -5.79166,-17.95832 0,-11.375 5.79166,-17.95833 5.83333,-6.625 15.70833,-6.625 9.79166,0 15.62499,6.625 5.83333,6.58333 5.83333,17.95833 z m -8.08333,0 q 0,-9.04167 -3.54166,-13.41667 -3.54167,-4.41666 -9.83333,-4.41666 -6.375,0 -9.91666,4.41666 -3.5,4.375 -3.5,13.41667 0,8.74999 3.54166,13.29166 3.54167,4.49999 9.875,4.49999 6.25,0 9.79166,-4.45833 3.58333,-4.49999 3.58333,-13.33332 z"
       id="path310" />
    <path
       d="m 475.85075,554.02795 q 0,11.37499 -5.83333,17.95832 -5.83333,6.58333 -15.625,6.58333 -9.87499,0 -15.70832,-6.58333 -5.79167,-6.58333 -5.79167,-17.95832 0,-11.375 5.79167,-17.95833 5.83333,-6.625 15.70832,-6.625 9.79167,0 15.625,6.625 5.83333,6.58333 5.83333,17.95833 z m -8.08333,0 q 0,-9.04167 -3.54167,-13.41667 -3.54166,-4.41666 -9.83333,-4.41666 -6.37499,0 -9.91666,4.41666 -3.5,4.375 -3.5,13.41667 0,8.74999 3.54167,13.29166 3.54166,4.49999 9.87499,4.49999 6.25,0 9.79167,-4.45833 3.58333,-4.49999 3.58333,-13.33332 z"
       id="path312" />
    <path
       d="m 530.22574,577.27794 h -10.33333 l -18.66666,-20.375 -5.08333,4.83334 v 15.54166 h -7.83333 v -64.83331 h 7.83333 v 41.58332 l 22.62499,-23.29166 h 9.875 l -21.625,21.49999 z"
       id="path314" />
  </g>
  <g
     aria-label="MuntBook"
     transform="translate(-52.55 -61.2)"
     id="text17"
     style="font-size:25.4px;-inkscape-font-specification:'sans-serif, Normal';white-space:pre;inline-size:141.859;display:inline;fill:#4d4d4d;stroke-width:0.264583">
    <path
       d="m 53.616444,79.461797 q -0.508,0 -0.7874,-0.3048 -0.2794,-0.3048 -0.2794,-0.8128 v -16.0274 q 0,-0.5334 0.2794,-0.8128 0.3048,-0.3048 0.8128,-0.3048 0.4572,0 0.7112,0.1778 0.2794,0.1778 0.508,0.6096 l 6.8072,12.7762 h -0.7874 l 6.807199,-12.7762 q 0.2286,-0.4318 0.4826,-0.6096 0.254,-0.1778 0.7112,-0.1778 0.508,0 0.7874,0.3048 0.2794,0.2794 0.2794,0.8128 v 16.0274 q 0,0.508 -0.2794,0.8128 -0.254,0.3048 -0.7874,0.3048 -0.5334,0 -0.8128,-0.3048 -0.254,-0.3048 -0.254,-0.8128 v -13.6906 h 0.5588 l -6.095999,11.4046 q -0.2032,0.3302 -0.4318,0.508 -0.2032,0.1524 -0.5842,0.1524 -0.3556,0 -0.6096,-0.1778 -0.2286,-0.1778 -0.4064,-0.4826 l -6.1722,-11.43 h 0.6096 v 13.716 q 0,0.508 -0.2794,0.8128 -0.254,0.3048 -0.7874,0.3048 z"
       style="font-family:Nunito;-inkscape-font-specification:'Nunito, @wght=500';font-variation-settings:'wght' 500"
       id="path283" />
    <path
       d="m 78.406837,79.512597 q -1.4986,0 -2.514599,-0.5588 -0.9906,-0.5588 -1.4732,-1.651 -0.4826,-1.0922 -0.4826,-2.7432 v -6.6548 q 0,-0.5842 0.2794,-0.8636 0.3048,-0.3048 0.8636,-0.3048 0.5588,0 0.8636,0.3048 0.3048,0.2794 0.3048,0.8636 v 6.6548 q 0,1.5748 0.634999,2.3368 0.635,0.7366 2.0066,0.7366 1.524,0 2.4638,-1.016 0.9652,-1.016 0.9652,-2.6924 v -6.0198 q 0,-0.5842 0.2794,-0.8636 0.3048,-0.3048 0.8636,-0.3048 0.5588,0 0.8636,0.3048 0.3048,0.2794 0.3048,0.8636 v 10.3632 q 0,1.1938 -1.1176,1.1938 -0.5588,0 -0.8636,-0.3048 -0.2794,-0.3048 -0.2794,-0.889 v -2.2098 l 0.3302,0.4318 q -0.508,1.4732 -1.651,2.2606 -1.1176,0.762 -2.6416,0.762 z"
       style="font-family:Nunito;-inkscape-font-specification:'Nunito, @wght=500';font-variation-settings:'wght' 500"
       id="path285" />
    <path
       d="m 89.481201,79.461797 q -0.5334,0 -0.8382,-0.3048 -0.3048,-0.3048 -0.3048,-0.889 v -10.3632 q 0,-0.5842 0.3048,-0.8636 0.3048,-0.3048 0.8382,-0.3048 0.5334,0 0.8128,0.3048 0.3048,0.2794 0.3048,0.8636 v 2.0828 l -0.2794,-0.381 q 0.5334,-1.4478 1.7272,-2.1844 1.2192,-0.7366 2.7686,-0.7366 1.4986,0 2.4638,0.5334 0.9652,0.5334 1.4478,1.6256 0.4826,1.0922 0.4826,2.7686 v 6.6548 q 0,0.5842 -0.3048,0.889 -0.2794,0.3048 -0.8382,0.3048 -0.5588,0 -0.8636,-0.3048 -0.3048,-0.3048 -0.3048,-0.889 v -6.5278 q 0,-1.651 -0.635,-2.413 -0.635,-0.762 -2.032,-0.762 -1.6256,0 -2.6162,1.016 -0.9652,0.9906 -0.9652,2.6924 v 5.9944 q 0,1.1938 -1.1684,1.1938 z"
       style="font-family:Nunito;-inkscape-font-specification:'Nunito, @wght=500';font-variation-settings:'wght' 500"
       id="path287" />
    <path
       d="m 107.99776,79.512597 q -1.4986,0 -2.5146,-0.5334 -0.9906,-0.5334 -1.4986,-1.5494 -0.4826,-1.016 -0.4826,-2.4892 v -6.2484 h -1.6256 q -0.4572,0 -0.7112,-0.2286 -0.254,-0.254 -0.254,-0.6604 0,-0.4318 0.254,-0.6604 0.254,-0.2286 0.7112,-0.2286 h 1.6256 v -2.7686 q 0,-0.5842 0.3048,-0.8636 0.3048,-0.3048 0.8636,-0.3048 0.5588,0 0.8382,0.3048 0.3048,0.2794 0.3048,0.8636 v 2.7686 h 3.0734 q 0.4826,0 0.7366,0.2286 0.254,0.2286 0.254,0.6604 0,0.4064 -0.254,0.6604 -0.254,0.2286 -0.7366,0.2286 h -3.0734 v 6.0452 q 0,1.397 0.5842,2.1082 0.5842,0.7112 1.9304,0.7112 0.4826,0 0.8128,-0.0762 0.3302,-0.1016 0.5842,-0.1016 0.2286,-0.0254 0.381,0.1524 0.1778,0.1778 0.1778,0.6604 0,0.3556 -0.127,0.6604 -0.1016,0.2794 -0.4318,0.381 -0.3048,0.1016 -0.8128,0.1778 -0.508,0.1016 -0.9144,0.1016 z"
       style="font-family:Nunito;-inkscape-font-specification:'Nunito, @wght=500';font-variation-settings:'wght' 500"
       id="path289" />
    <path
       d="m 113.53496,79.283997 q -0.6096,0 -0.9398,-0.3302 -0.3302,-0.3302 -0.3302,-0.9398 v -15.367 q 0,-0.6096 0.3302,-0.9398 0.3302,-0.3302 0.9398,-0.3302 h 6.0198 q 1.8542,0 3.1496,0.5588 1.3208,0.5588 2.0066,1.6002 0.6858,1.0414 0.6858,2.5146 0,1.651 -0.9652,2.7686 -0.9652,1.1176 -2.6416,1.4986 v -0.381 q 1.8796,0.2286 2.9464,1.397 1.0922,1.143 1.0922,2.9972 0,2.3876 -1.5748,3.683 -1.5494,1.27 -4.3942,1.27 z m 1.016,-1.8542 h 5.0546 q 1.9812,0 2.9464,-0.762 0.9652,-0.7874 0.9652,-2.3876 0,-1.6002 -0.9652,-2.3622 -0.9652,-0.762 -2.9464,-0.762 h -5.0546 z m 0,-8.1534 h 4.6482 q 1.9304,0 2.8956,-0.762 0.9906,-0.7874 0.9906,-2.2606 0,-1.4732 -0.9906,-2.2352 -0.9652,-0.7874 -2.8956,-0.7874 h -4.6482 z"
       style="font-family:Nunito;-inkscape-font-specification:'Nunito, @wght=500';font-variation-settings:'wght' 500"
       id="path291" />
    <path
       d="m 134.46453,79.512597 q -1.8288,0 -3.175,-0.7874 -1.3462,-0.7874 -2.0828,-2.2352 -0.7366,-1.4478 -0.7366,-3.4036 0,-1.4732 0.4064,-2.6416 0.4318,-1.1938 1.2192,-2.032 0.7874,-0.8382 1.8796,-1.27 1.1176,-0.4572 2.4892,-0.4572 1.8288,0 3.175,0.7874 1.3462,0.7874 2.0828,2.2352 0.7366,1.4224 0.7366,3.3782 0,1.4732 -0.4318,2.667 -0.4064,1.1938 -1.1938,2.032 -0.7874,0.8382 -1.905,1.2954 -1.0922,0.4318 -2.4638,0.4318 z m 0,-1.8288 q 1.1176,0 1.9304,-0.5334 0.8382,-0.5334 1.27,-1.5494 0.4572,-1.016 0.4572,-2.5146 0,-2.2352 -0.9906,-3.4036 -0.9906,-1.1684 -2.667,-1.1684 -1.0922,0 -1.9304,0.5334 -0.8128,0.508 -1.27,1.524 -0.4572,1.016 -0.4572,2.5146 0,2.2352 0.9906,3.429 1.016,1.1684 2.667,1.1684 z"
       style="font-family:Nunito;-inkscape-font-specification:'Nunito, @wght=500';font-variation-settings:'wght' 500"
       id="path293" />
    <path
       d="m 148.68852,79.512597 q -1.8288,0 -3.175,-0.7874 -1.3462,-0.7874 -2.0828,-2.2352 -0.7366,-1.4478 -0.7366,-3.4036 0,-1.4732 0.4064,-2.6416 0.4318,-1.1938 1.2192,-2.032 0.7874,-0.8382 1.8796,-1.27 1.1176,-0.4572 2.4892,-0.4572 1.8288,0 3.175,0.7874 1.3462,0.7874 2.0828,2.2352 0.7366,1.4224 0.7366,3.3782 0,1.4732 -0.4318,2.667 -0.4064,1.1938 -1.1938,2.032 -0.7874,0.8382 -1.905,1.2954 -1.0922,0.4318 -2.4638,0.4318 z m 0,-1.8288 q 1.1176,0 1.9304,-0.5334 0.8382,-0.5334 1.27,-1.5494 0.4572,-1.016 0.4572,-2.5146 0,-2.2352 -0.9906,-3.4036 -0.9906,-1.1684 -2.667,-1.1684 -1.0922,0 -1.9304,0.5334 -0.8128,0.508 -1.27,1.524 -0.4572,1.016 -0.4572,2.5146 0,2.2352 0.9906,3.429 1.016,1.1684 2.667,1.1684 z"
       style="font-family:Nunito;-inkscape-font-specification:'Nunito, @wght=500';font-variation-settings:'wght' 500"
       id="path295" />
    <path
       d="m 158.79771,79.461797 q -0.5334,0 -0.8382,-0.3048 -0.3048,-0.3048 -0.3048,-0.889 v -15.9004 q 0,-0.5842 0.3048,-0.8636 0.3048,-0.3048 0.8382,-0.3048 0.5588,0 0.8636,0.3048 0.3048,0.2794 0.3048,0.8636 v 10.0076 h 0.0508 l 4.9784,-4.8514 q 0.381,-0.381 0.6858,-0.5842 0.3048,-0.2032 0.7874,-0.2032 0.4826,0 0.7366,0.254 0.254,0.2286 0.254,0.6096 0,0.3556 -0.3556,0.7112 l -5.2832,5.1308 v -1.143 l 5.7658,5.5626 q 0.3556,0.3556 0.3302,0.7366 0,0.381 -0.2794,0.635 -0.254,0.2286 -0.6858,0.2286 -0.508,0 -0.8382,-0.2032 -0.3048,-0.2032 -0.7112,-0.635 l -5.3848,-5.08 h -0.0508 v 4.7244 q 0,1.1938 -1.1684,1.1938 z"
       style="font-family:Nunito;-inkscape-font-specification:'Nunito, @wght=500';font-variation-settings:'wght' 500"
       id="path297" />
  </g>
</svg>
