<svg xmlns="http://www.w3.org/2000/svg" width="436.038" height="69.216" viewBox="0 0 115.368 18.313"><defs><path id="a" d="M104.642 356.733h209.283v142.693H104.642z"/></defs><g aria-label="MuntBook" style="font-size:85.3333px;-inkscape-font-specification:&quot;sans-serif, Normal&quot;;white-space:pre;shape-inside:url(#a);display:inline;fill:#4d4d4d" transform="translate(-53.55 -61.2) scale(.26458)"><path d="M168.226 577.278h-8.25V523.82l-17.25 36.375h-4.917l-17.125-36.375v53.458h-7.708v-62.042h11.25l16.542 34.542 16-34.542h11.458zM222.85 577.278h-7.832v-5.167q-3.959 3.125-7.584 4.792-3.625 1.667-8 1.667-7.333 0-11.416-4.459-4.084-4.5-4.084-13.166v-30.209h7.834v26.5q0 3.542.333 6.084.333 2.5 1.417 4.291 1.125 1.834 2.916 2.667 1.792.833 5.209.833 3.041 0 6.625-1.583 3.625-1.583 6.75-4.042v-34.75h7.833zM277.184 577.278h-7.833v-26.5q0-3.208-.375-6-.375-2.833-1.375-4.417-1.042-1.75-3-2.583-1.958-.875-5.083-.875-3.209 0-6.709 1.583-3.5 1.584-6.708 4.042v34.75h-7.833v-46.542h7.833v5.167q3.667-3.042 7.583-4.75 3.917-1.708 8.042-1.708 7.542 0 11.5 4.541 3.958 4.542 3.958 13.084zM316.434 576.861q-2.208.584-4.833.959-2.583.375-4.625.375-7.125 0-10.833-3.834-3.709-3.833-3.709-12.291v-24.75h-5.291v-6.584h5.291v-13.375h7.834v13.375h16.166v6.584h-16.167v21.208q0 3.667.167 5.75.167 2.042 1.167 3.833.916 1.667 2.5 2.459 1.625.75 4.916.75 1.917 0 4-.542 2.084-.583 3-.958h.417zM373.31 558.195q0 4.625-1.75 8.166-1.75 3.542-4.71 5.834-3.5 2.75-7.708 3.916-4.166 1.167-10.625 1.167h-22v-62.042h18.375q6.792 0 10.167.5t6.458 2.084q3.417 1.791 4.959 4.625 1.541 2.791 1.541 6.708 0 4.417-2.25 7.542-2.25 3.083-6 4.958v.333q6.292 1.292 9.917 5.542 3.625 4.208 3.625 10.667zm-13.876-27.959q0-2.25-.75-3.791-.75-1.542-2.417-2.5-1.958-1.125-4.75-1.375-2.791-.292-6.916-.292h-9.834v17.917h10.667q3.875 0 6.167-.375 2.291-.417 4.25-1.667 1.958-1.25 2.75-3.208.833-2 .833-4.709zm5.292 28.292q0-3.75-1.125-5.958-1.125-2.209-4.084-3.75-2-1.042-4.875-1.334-2.833-.333-6.916-.333h-12.959v23.083h10.917q5.417 0 8.875-.541 3.458-.584 5.667-2.084 2.333-1.625 3.416-3.708 1.084-2.083 1.084-5.375zM424.06 554.028q0 11.375-5.834 17.958-5.834 6.584-15.625 6.584-9.875 0-15.709-6.584-5.791-6.583-5.791-17.958 0-11.375 5.791-17.958 5.834-6.625 15.709-6.625 9.791 0 15.625 6.625 5.833 6.583 5.833 17.958zm-8.084 0q0-9.042-3.542-13.417-3.542-4.416-9.833-4.416-6.375 0-9.917 4.416-3.5 4.375-3.5 13.417 0 8.75 3.542 13.292 3.541 4.5 9.875 4.5 6.25 0 9.791-4.459 3.584-4.5 3.584-13.333zM475.85 554.028q0 11.375-5.833 17.958-5.833 6.584-15.625 6.584-9.875 0-15.708-6.584-5.792-6.583-5.792-17.958 0-11.375 5.792-17.958 5.833-6.625 15.708-6.625 9.792 0 15.625 6.625 5.834 6.583 5.834 17.958zm-8.083 0q0-9.042-3.541-13.417-3.542-4.416-9.834-4.416-6.375 0-9.916 4.416-3.5 4.375-3.5 13.417 0 8.75 3.541 13.292 3.542 4.5 9.875 4.5 6.25 0 9.792-4.459 3.583-4.5 3.583-13.333zM530.226 577.278h-10.334l-18.666-20.375-5.084 4.833v15.542h-7.833v-64.833h7.833v41.583l22.625-23.292h9.875l-21.625 21.5z"/></g><g aria-label="MuntBook" style="font-size:25.4px;-inkscape-font-specification:&quot;sans-serif, Normal&quot;;white-space:pre;inline-size:141.859;display:inline;fill:#4d4d4d;stroke-width:.264583"><path d="M53.616 79.462q-.508 0-.787-.305-.28-.305-.28-.813V62.317q0-.534.28-.813.305-.305.813-.305.457 0 .711.178.28.178.508.61l6.807 12.776h-.787l6.807-12.776q.229-.432.483-.61t.71-.178q.509 0 .788.305.28.28.28.813v16.027q0 .508-.28.813-.254.305-.787.305-.534 0-.813-.305-.254-.305-.254-.813v-13.69h.559l-6.096 11.404q-.203.33-.432.508-.203.153-.584.153-.356 0-.61-.178-.228-.178-.406-.483l-6.172-11.43h.61v13.716q0 .508-.28.813-.254.305-.788.305zM78.407 79.513q-1.499 0-2.515-.56-.99-.558-1.473-1.65-.483-1.092-.483-2.743v-6.655q0-.584.28-.864.305-.305.863-.305.56 0 .864.305.305.28.305.864v6.655q0 1.574.635 2.336.635.737 2.006.737 1.524 0 2.464-1.016.965-1.016.965-2.692v-6.02q0-.584.28-.864.305-.305.863-.305.56 0 .864.305.305.28.305.864v10.363q0 1.194-1.118 1.194-.559 0-.863-.305-.28-.305-.28-.889v-2.21l.33.432q-.508 1.473-1.65 2.26-1.118.763-2.642.763zM89.481 79.462q-.533 0-.838-.305-.305-.305-.305-.889V67.905q0-.584.305-.864.305-.305.838-.305.534 0 .813.305.305.28.305.864v2.083l-.28-.381q.534-1.448 1.728-2.185 1.219-.736 2.768-.736 1.499 0 2.464.533.965.533 1.448 1.626.482 1.092.482 2.768v6.655q0 .584-.304.889-.28.305-.839.305-.558 0-.863-.305-.305-.305-.305-.889V71.74q0-1.65-.635-2.413-.635-.762-2.032-.762-1.626 0-2.616 1.016-.965.99-.965 2.693v5.994q0 1.194-1.169 1.194zM107.998 79.513q-1.499 0-2.515-.534-.99-.533-1.498-1.55-.483-1.015-.483-2.488v-6.249h-1.626q-.457 0-.71-.228-.255-.254-.255-.66 0-.433.254-.661.254-.229.711-.229h1.626v-2.768q0-.585.305-.864.305-.305.863-.305.56 0 .839.305.304.28.304.864v2.768h3.074q.482 0 .736.229.254.228.254.66 0 .407-.254.66-.254.23-.736.23h-3.074v6.044q0 1.397.585 2.109.584.71 1.93.71.483 0 .813-.075.33-.102.584-.102.229-.025.381.152.178.178.178.66 0 .356-.127.661-.102.28-.432.381-.305.102-.813.178-.508.102-.914.102zM113.535 79.284q-.61 0-.94-.33-.33-.33-.33-.94V62.647q0-.61.33-.94.33-.33.94-.33h6.02q1.854 0 3.15.559 1.32.559 2.006 1.6.686 1.041.686 2.515 0 1.65-.965 2.768-.966 1.118-2.642 1.499v-.381q1.88.228 2.946 1.397 1.093 1.143 1.093 2.997 0 2.388-1.575 3.683-1.55 1.27-4.394 1.27zm1.016-1.854h5.055q1.98 0 2.946-.762.965-.788.965-2.388 0-1.6-.965-2.362t-2.946-.762h-5.055zm0-8.154h4.648q1.93 0 2.896-.762.99-.787.99-2.26 0-1.473-.99-2.235-.965-.788-2.896-.788h-4.648zM134.465 79.513q-1.83 0-3.175-.788-1.347-.787-2.083-2.235-.737-1.448-.737-3.404 0-1.473.407-2.641.431-1.194 1.219-2.032.787-.838 1.88-1.27 1.117-.457 2.489-.457 1.828 0 3.175.787 1.346.787 2.082 2.235.737 1.423.737 3.378 0 1.474-.432 2.667-.406 1.194-1.194 2.032-.787.839-1.905 1.296-1.092.432-2.463.432zm0-1.83q1.117 0 1.93-.533.838-.533 1.27-1.549.457-1.016.457-2.515 0-2.235-.99-3.403-.991-1.169-2.667-1.169-1.093 0-1.93.534-.814.508-1.27 1.524-.458 1.016-.458 2.514 0 2.236.99 3.43 1.017 1.168 2.668 1.168zM148.689 79.513q-1.83 0-3.175-.788-1.347-.787-2.083-2.235-.737-1.448-.737-3.404 0-1.473.407-2.641.431-1.194 1.219-2.032.787-.838 1.88-1.27 1.117-.457 2.489-.457 1.828 0 3.175.787 1.346.787 2.082 2.235.737 1.423.737 3.378 0 1.474-.432 2.667-.406 1.194-1.194 2.032-.787.839-1.905 1.296-1.092.432-2.463.432zm0-1.83q1.117 0 1.93-.533.838-.533 1.27-1.549.457-1.016.457-2.515 0-2.235-.99-3.403-.991-1.169-2.667-1.169-1.093 0-1.93.534-.814.508-1.27 1.524-.458 1.016-.458 2.514 0 2.236.99 3.43 1.017 1.168 2.668 1.168zM158.798 79.462q-.534 0-.838-.305-.305-.305-.305-.889v-15.9q0-.585.305-.864.304-.305.838-.305.559 0 .863.305.305.28.305.864v10.007h.05l4.98-4.851q.38-.381.685-.584.305-.204.788-.204.482 0 .736.254.254.229.254.61 0 .356-.355.711l-5.284 5.131v-1.143l5.766 5.563q.356.355.33.736 0 .381-.28.635-.253.229-.685.229-.508 0-.838-.203-.305-.204-.711-.635l-5.385-5.08h-.05v4.724q0 1.194-1.17 1.194z" style="font-family:Nunito;-inkscape-font-specification:&quot;Nunito, @wght=500&quot;;font-variation-settings:&quot;wght&quot;500" transform="translate(-52.55 -61.2)"/></g></svg>