<?xml version="1.0" encoding="UTF-8" standalone="no"?>
<svg
   width="436.038"
   height="69.216"
   viewBox="0 0 115.368 18.313"
   version="1.1"
   id="svg19"
   sodipodi:docname="white.svg"
   inkscape:version="1.2.1 (9c6d41e, 2022-07-14)"
   xmlns:inkscape="http://www.inkscape.org/namespaces/inkscape"
   xmlns:sodipodi="http://sodipodi.sourceforge.net/DTD/sodipodi-0.dtd"
   xmlns="http://www.w3.org/2000/svg"
   xmlns:svg="http://www.w3.org/2000/svg">
  <sodipodi:namedview
     id="namedview21"
     pagecolor="#ffffff"
     bordercolor="#000000"
     borderopacity="0.25"
     inkscape:showpageshadow="2"
     inkscape:pageopacity="0.0"
     inkscape:pagecheckerboard="0"
     inkscape:deskcolor="#d1d1d1"
     showgrid="false"
     inkscape:zoom="2.7726942"
     inkscape:cx="254.98665"
     inkscape:cy="37.508645"
     inkscape:window-width="1309"
     inkscape:window-height="456"
     inkscape:window-x="0"
     inkscape:window-y="25"
     inkscape:window-maximized="0"
     inkscape:current-layer="text17" />
  <defs
     id="defs5">
    <path
       id="c"
       d="M304.412 466.131h85.616v109.398h-85.616z" />
    <path
       id="b"
       d="M104.642 356.733h209.283v142.693H104.642z" />
    <path
       id="a"
       d="M76.103 356.733h128.424v99.885H76.103z" />
  </defs>
  <text
     xml:space="preserve"
     style="font-style:normal;font-variant:normal;font-weight:400;font-stretch:normal;font-size:85.3333px;font-family:sans-serif;-inkscape-font-specification:'sans-serif, Normal';font-variant-ligatures:normal;font-variant-caps:normal;font-variant-numeric:normal;font-variant-east-asian:normal;white-space:pre;shape-inside:url(#b);display:inline;fill:#e6e6e6"
     transform="matrix(0.26458,0,0,0.26458,-53.55,-61.2)"
     id="text11"><tspan
       x="104.64258"
       y="577.27794"
       id="tspan441"><tspan
         dx="0 71.916634 53.999977 53.999985 33.624969 58.5 51.791626 51.791656"
         id="tspan439">MuntBook</tspan></tspan></text>
  <g
     aria-label="MuntBook"
     transform="translate(-52.55,-61.2)"
     id="text17"
     style="font-size:25.4px;-inkscape-font-specification:'sans-serif, Normal';white-space:pre;inline-size:141.859;display:inline;fill:#ffffff;stroke-width:0.264583">
    <path
       d="m 53.616444,79.461797 q -0.508,0 -0.7874,-0.3048 -0.2794,-0.3048 -0.2794,-0.8128 v -16.0274 q 0,-0.5334 0.2794,-0.8128 0.3048,-0.3048 0.8128,-0.3048 0.4572,0 0.7112,0.1778 0.2794,0.1778 0.508,0.6096 l 6.8072,12.7762 h -0.7874 l 6.807199,-12.7762 q 0.2286,-0.4318 0.4826,-0.6096 0.254,-0.1778 0.7112,-0.1778 0.508,0 0.7874,0.3048 0.2794,0.2794 0.2794,0.8128 v 16.0274 q 0,0.508 -0.2794,0.8128 -0.254,0.3048 -0.7874,0.3048 -0.5334,0 -0.8128,-0.3048 -0.254,-0.3048 -0.254,-0.8128 v -13.6906 h 0.5588 l -6.095999,11.4046 q -0.2032,0.3302 -0.4318,0.508 -0.2032,0.1524 -0.5842,0.1524 -0.3556,0 -0.6096,-0.1778 -0.2286,-0.1778 -0.4064,-0.4826 l -6.1722,-11.43 h 0.6096 v 13.716 q 0,0.508 -0.2794,0.8128 -0.254,0.3048 -0.7874,0.3048 z"
       style="font-family:Nunito;-inkscape-font-specification:'Nunito, @wght=500';font-variation-settings:'wght' 500;fill:#ececec"
       id="path404" />
    <path
       d="m 78.406837,79.512597 q -1.4986,0 -2.514599,-0.5588 -0.9906,-0.5588 -1.4732,-1.651 -0.4826,-1.0922 -0.4826,-2.7432 v -6.6548 q 0,-0.5842 0.2794,-0.8636 0.3048,-0.3048 0.8636,-0.3048 0.5588,0 0.8636,0.3048 0.3048,0.2794 0.3048,0.8636 v 6.6548 q 0,1.5748 0.634999,2.3368 0.635,0.7366 2.0066,0.7366 1.524,0 2.4638,-1.016 0.9652,-1.016 0.9652,-2.6924 v -6.0198 q 0,-0.5842 0.2794,-0.8636 0.3048,-0.3048 0.8636,-0.3048 0.5588,0 0.8636,0.3048 0.3048,0.2794 0.3048,0.8636 v 10.3632 q 0,1.1938 -1.1176,1.1938 -0.5588,0 -0.8636,-0.3048 -0.2794,-0.3048 -0.2794,-0.889 v -2.2098 l 0.3302,0.4318 q -0.508,1.4732 -1.651,2.2606 -1.1176,0.762 -2.6416,0.762 z"
       style="font-family:Nunito;-inkscape-font-specification:'Nunito, @wght=500';font-variation-settings:'wght' 500;fill:#ececec"
       id="path406" />
    <path
       d="m 89.481201,79.461797 q -0.5334,0 -0.8382,-0.3048 -0.3048,-0.3048 -0.3048,-0.889 v -10.3632 q 0,-0.5842 0.3048,-0.8636 0.3048,-0.3048 0.8382,-0.3048 0.5334,0 0.8128,0.3048 0.3048,0.2794 0.3048,0.8636 v 2.0828 l -0.2794,-0.381 q 0.5334,-1.4478 1.7272,-2.1844 1.2192,-0.7366 2.7686,-0.7366 1.4986,0 2.4638,0.5334 0.9652,0.5334 1.4478,1.6256 0.4826,1.0922 0.4826,2.7686 v 6.6548 q 0,0.5842 -0.3048,0.889 -0.2794,0.3048 -0.8382,0.3048 -0.5588,0 -0.8636,-0.3048 -0.3048,-0.3048 -0.3048,-0.889 v -6.5278 q 0,-1.651 -0.635,-2.413 -0.635,-0.762 -2.032,-0.762 -1.6256,0 -2.6162,1.016 -0.9652,0.9906 -0.9652,2.6924 v 5.9944 q 0,1.1938 -1.1684,1.1938 z"
       style="font-family:Nunito;-inkscape-font-specification:'Nunito, @wght=500';font-variation-settings:'wght' 500;fill:#ececec"
       id="path408" />
    <path
       d="m 107.99776,79.512597 q -1.4986,0 -2.5146,-0.5334 -0.9906,-0.5334 -1.4986,-1.5494 -0.4826,-1.016 -0.4826,-2.4892 v -6.2484 h -1.6256 q -0.4572,0 -0.7112,-0.2286 -0.254,-0.254 -0.254,-0.6604 0,-0.4318 0.254,-0.6604 0.254,-0.2286 0.7112,-0.2286 h 1.6256 v -2.7686 q 0,-0.5842 0.3048,-0.8636 0.3048,-0.3048 0.8636,-0.3048 0.5588,0 0.8382,0.3048 0.3048,0.2794 0.3048,0.8636 v 2.7686 h 3.0734 q 0.4826,0 0.7366,0.2286 0.254,0.2286 0.254,0.6604 0,0.4064 -0.254,0.6604 -0.254,0.2286 -0.7366,0.2286 h -3.0734 v 6.0452 q 0,1.397 0.5842,2.1082 0.5842,0.7112 1.9304,0.7112 0.4826,0 0.8128,-0.0762 0.3302,-0.1016 0.5842,-0.1016 0.2286,-0.0254 0.381,0.1524 0.1778,0.1778 0.1778,0.6604 0,0.3556 -0.127,0.6604 -0.1016,0.2794 -0.4318,0.381 -0.3048,0.1016 -0.8128,0.1778 -0.508,0.1016 -0.9144,0.1016 z"
       style="font-family:Nunito;-inkscape-font-specification:'Nunito, @wght=500';font-variation-settings:'wght' 500;fill:#ececec"
       id="path410" />
    <path
       d="m 113.53496,79.283997 q -0.6096,0 -0.9398,-0.3302 -0.3302,-0.3302 -0.3302,-0.9398 v -15.367 q 0,-0.6096 0.3302,-0.9398 0.3302,-0.3302 0.9398,-0.3302 h 6.0198 q 1.8542,0 3.1496,0.5588 1.3208,0.5588 2.0066,1.6002 0.6858,1.0414 0.6858,2.5146 0,1.651 -0.9652,2.7686 -0.9652,1.1176 -2.6416,1.4986 v -0.381 q 1.8796,0.2286 2.9464,1.397 1.0922,1.143 1.0922,2.9972 0,2.3876 -1.5748,3.683 -1.5494,1.27 -4.3942,1.27 z m 1.016,-1.8542 h 5.0546 q 1.9812,0 2.9464,-0.762 0.9652,-0.7874 0.9652,-2.3876 0,-1.6002 -0.9652,-2.3622 -0.9652,-0.762 -2.9464,-0.762 h -5.0546 z m 0,-8.1534 h 4.6482 q 1.9304,0 2.8956,-0.762 0.9906,-0.7874 0.9906,-2.2606 0,-1.4732 -0.9906,-2.2352 -0.9652,-0.7874 -2.8956,-0.7874 h -4.6482 z"
       style="font-family:Nunito;-inkscape-font-specification:'Nunito, @wght=500';font-variation-settings:'wght' 500;fill:#ececec"
       id="path412" />
    <path
       d="m 134.46453,79.512597 q -1.8288,0 -3.175,-0.7874 -1.3462,-0.7874 -2.0828,-2.2352 -0.7366,-1.4478 -0.7366,-3.4036 0,-1.4732 0.4064,-2.6416 0.4318,-1.1938 1.2192,-2.032 0.7874,-0.8382 1.8796,-1.27 1.1176,-0.4572 2.4892,-0.4572 1.8288,0 3.175,0.7874 1.3462,0.7874 2.0828,2.2352 0.7366,1.4224 0.7366,3.3782 0,1.4732 -0.4318,2.667 -0.4064,1.1938 -1.1938,2.032 -0.7874,0.8382 -1.905,1.2954 -1.0922,0.4318 -2.4638,0.4318 z m 0,-1.8288 q 1.1176,0 1.9304,-0.5334 0.8382,-0.5334 1.27,-1.5494 0.4572,-1.016 0.4572,-2.5146 0,-2.2352 -0.9906,-3.4036 -0.9906,-1.1684 -2.667,-1.1684 -1.0922,0 -1.9304,0.5334 -0.8128,0.508 -1.27,1.524 -0.4572,1.016 -0.4572,2.5146 0,2.2352 0.9906,3.429 1.016,1.1684 2.667,1.1684 z"
       style="font-family:Nunito;-inkscape-font-specification:'Nunito, @wght=500';font-variation-settings:'wght' 500;fill:#ececec"
       id="path414" />
    <path
       d="m 148.68852,79.512597 q -1.8288,0 -3.175,-0.7874 -1.3462,-0.7874 -2.0828,-2.2352 -0.7366,-1.4478 -0.7366,-3.4036 0,-1.4732 0.4064,-2.6416 0.4318,-1.1938 1.2192,-2.032 0.7874,-0.8382 1.8796,-1.27 1.1176,-0.4572 2.4892,-0.4572 1.8288,0 3.175,0.7874 1.3462,0.7874 2.0828,2.2352 0.7366,1.4224 0.7366,3.3782 0,1.4732 -0.4318,2.667 -0.4064,1.1938 -1.1938,2.032 -0.7874,0.8382 -1.905,1.2954 -1.0922,0.4318 -2.4638,0.4318 z m 0,-1.8288 q 1.1176,0 1.9304,-0.5334 0.8382,-0.5334 1.27,-1.5494 0.4572,-1.016 0.4572,-2.5146 0,-2.2352 -0.9906,-3.4036 -0.9906,-1.1684 -2.667,-1.1684 -1.0922,0 -1.9304,0.5334 -0.8128,0.508 -1.27,1.524 -0.4572,1.016 -0.4572,2.5146 0,2.2352 0.9906,3.429 1.016,1.1684 2.667,1.1684 z"
       style="font-family:Nunito;-inkscape-font-specification:'Nunito, @wght=500';font-variation-settings:'wght' 500;fill:#ececec"
       id="path416" />
    <path
       d="m 158.79771,79.461797 q -0.5334,0 -0.8382,-0.3048 -0.3048,-0.3048 -0.3048,-0.889 v -15.9004 q 0,-0.5842 0.3048,-0.8636 0.3048,-0.3048 0.8382,-0.3048 0.5588,0 0.8636,0.3048 0.3048,0.2794 0.3048,0.8636 v 10.0076 h 0.0508 l 4.9784,-4.8514 q 0.381,-0.381 0.6858,-0.5842 0.3048,-0.2032 0.7874,-0.2032 0.4826,0 0.7366,0.254 0.254,0.2286 0.254,0.6096 0,0.3556 -0.3556,0.7112 l -5.2832,5.1308 v -1.143 l 5.7658,5.5626 q 0.3556,0.3556 0.3302,0.7366 0,0.381 -0.2794,0.635 -0.254,0.2286 -0.6858,0.2286 -0.508,0 -0.8382,-0.2032 -0.3048,-0.2032 -0.7112,-0.635 l -5.3848,-5.08 h -0.0508 v 4.7244 q 0,1.1938 -1.1684,1.1938 z"
       style="font-family:Nunito;-inkscape-font-specification:'Nunito, @wght=500';font-variation-settings:'wght' 500;fill:#ececec"
       id="path418" />
  </g>
</svg>
